{"title":"The Young Offenders 2016 720p BRRip x264 titler","magnet":"magnet:?xt=urn:btih:caa859fd64034af1392b63387507d807be417118&dn=The+Young+Offenders+2016+720p+BRRip+x264+titler&tr=udp%3A%2F%2Ftracker.leechers-paradise.org%3A6969&tr=udp%3A%2F%2Fzer0day.ch%3A1337&tr=udp%3A%2F%2Fopen.demonii.com%3A1337&tr=udp%3A%2F%2Ftracker.coppersurfer.tk%3A6969&tr=udp%3A%2F%2Fexodus.desync.com%3A6969","uploader":"movieZ.freak","categoryP":"video","categoryS":"hd___movies","size":"951564809","seeders":"33","leechers":"18","description":"SOURCE: The Young Offenders 2016 LIMITED 720p BluRay x264 - CADAVER\r\n\r\n <a href=\"\nhttp://www.imdb.com/title/tt4714568/\" rel=\"nofollow\" target=\"_NEW\">\nhttp://www.imdb.com/title/tt4714568/</a>\r\n <a href=\"\nhttps://www.rottentomatoes.com/m/the_young_offenders/\" rel=\"nofollow\" target=\"_NEW\">\nhttps://www.rottentomatoes.com/m/the_young_offenders/</a>\r\n <a href=\"\nhttps://en.wikipedia.org/wiki/The_Young_Offenders\" rel=\"nofollow\" target=\"_NEW\">\nhttps://en.wikipedia.org/wiki/The_Young_Offenders</a>\r\n\r\n\r\n- SAMPLE: Yes\r\n\r\n- SUBTITLE: English\r\n\r\n- LANGUAGE / AUDIO: English\r\n\r\n\r\nSCREENSHOTS:\r\n------------------- <a href=\"\nhttps://imgur.com/a/9lltT\" rel=\"nofollow\" target=\"_NEW\">\nhttps://imgur.com/a/9lltT</a>\r\n\r\n\r\nDIRECTOR: Peter Foott\r\n\r\n\r\nCAST: Alex Murphy, Chris Walley, Hilary Rose, Dominic MacHale, P.J. Gallagher, Shane Casey, ...\r\n\r\n\r\nPLOT:\r\n-----------\r\nInspired by the true story of Ireland&apos;s biggest cocaine seizure in 2007, The Young Offenders is a comedy road movie about best friends Conor and Jock, two inner-city teenagers from Cork who dress the same, act the same, and even have the same bum-fluff mustaches. Jock is a legendary bike thief who plays a daily game of cat-and-mouse with the bike-theft-obsessed Garda Sergeant Healy. When a drug-trafficking boat capsizes off the coast of West Cork and 61 bales of cocaine, each worth 7 million euro, are seized, word gets out that there is a bale missing. The boys steal two bikes and go on a road trip hoping to find a missing bale which they can sell so as to escape their troubled home lives...\r\n************************************\r\n\r\n- Duration: 1h 23min\r\n\r\n- Nominal bit rate: 1380 kb/s\r\n\r\n- Res: 1280 x 536\r\n\r\n- AR: 2.40:1\r\n\r\n- FPS: 24.000 FPS\r\n\r\n- Audio: AAC, 2 channels, 128 Kbps\r\n\r\n************************************\r\n\r\nGeneral\r\n------------\r\nFormat : Matroska\r\nFormat version : Version 4 / Version 2\r\nFile size : 894 MiB\r\nDuration : 1h 23min\r\nOverall bit rate : 1491 kb/s\r\nEncoded date : UTC 2017-12-27 01:30:06\r\nWriting application : mkvmerge v19.0.0 (&apos;Brave Captain&apos;) 64-bit\r\nWriting library : libebml v1.3.5 + libmatroska v1.4.8\r\n\r\nVideo\r\n---------\r\nFormat : AVC\r\nFormat/Info : Advanced Video Codec\r\nFormat profile : <a href=\"/cdn-cgi/l/email-protection\" class=\"__cf_email__\" data-cfemail=\"5b13323c331b176f756a\">[email&#xA0;protected]</a>\r\nFormat settings, CABAC : Yes\r\nFormat settings, ReFrames : 5 frames\r\nCodec ID : V_MPEG4/ISO/AVC\r\nDuration : 1h 23min\r\nBit rate : 1380 kb/s\r\nWidth : 1280 pixels\r\nHeight : 536 pixels\r\nDisplay aspect ratio : 2.40:1\r\nFrame rate mode : Constant\r\nFrame rate : 24.000 FPS\r\nColor space : YUV\r\nChroma subsampling : 4:2:0\r\nBit depth : 8 bits\r\nScan type : Progressive\r\nBits/(Pixel*Frame) : 0.084\r\nStream size : 816 MiB (91%)\r\nWriting library : x264 core 142\r\nEncoding settings : cabac=1 / ref=5\r\nDefault : Yes\r\nForced : No\r\n\r\nAudio\r\n-----------\r\nFormat : AAC\r\nFormat/Info : Advanced Audio Codec\r\nFormat profile : LC\r\nCodec ID : A_AAC\r\nDuration : 1h 23min\r\nBit rate : 128 kb/s\r\nChannel(s) : 2 channels\r\nChannel positions : Front: L R\r\nSampling rate : 48.0 kHz\r\nCompression mode : Lossy\r\nStream size : 76.7 MiB (9%)\r\nTitle : Stereo\r\nLanguage : English\r\nDefault : Yes\r\nForced : No","last_updated":"2017-12-27T12:05:22.942Z","parsed":{"xt":"urn:btih:caa859fd64034af1392b63387507d807be417118","dn":"The Young Offenders 2016 720p BRRip x264 titler","tr":["udp://exodus.desync.com:6969","udp://open.demonii.com:1337","udp://tracker.coppersurfer.tk:6969","udp://tracker.leechers-paradise.org:6969","udp://zer0day.ch:1337"],"infoHash":"caa859fd64034af1392b63387507d807be417118","infoHashBuffer":{"type":"Buffer","data":[202,168,89,253,100,3,74,241,57,43,99,56,117,7,216,7,190,65,113,24]},"name":"The Young Offenders 2016 720p BRRip x264 titler","announce":["udp://exodus.desync.com:6969","udp://open.demonii.com:1337","udp://tracker.coppersurfer.tk:6969","udp://tracker.leechers-paradise.org:6969","udp://zer0day.ch:1337"],"urlList":[]}}